# xmcd CD database file
#
# Track frame offsets:
#	150
#	12225
#	22797
#	38370
#	55465
#	67002
#	77912
#	87090
#	96140
#	108160
#	121627
#	135440
#
# Disc length: 1988 seconds
#
# Revision: 0
# Processed by: cddbd v1.5.1PL0 Copyright (c) Steve Scherf et al.
# Submitted via: CDex 1.51
#
DISCID=8407c20c
DTITLE=Joni James - My Favorite Things (TheSoundofRichardRodgers)
DYEAR=1900
DGENRE=Jazz
TTITLE0=My favorite things
TTITLE1=Falling in love with love
TTITLE2=The gentlemen is a dope
TTITLE3=It might as well be spring
TTITLE4=I don(t know what time it was
TTITLE5=Younger than springtime
TTITLE6=A Wonderful guy
TTITLE7=This can't be love
TTITLE8=Wait till you see
TTITLE9=A Fellow needs a girl
TTITLE10=Some enchantedevening
TTITLE11=The Sound of music
EXTD=
EXTT0=
EXTT1=
EXTT2=
EXTT3=
EXTT4=
EXTT5=
EXTT6=
EXTT7=
EXTT8=
EXTT9=
EXTT10=
EXTT11=
PLAYORDER=
